Coordinates
version=1
nRows=11
nColumns=40
inDegrees=yes

Units are S.I. units (second, meters, Newtons, ...)
Angles are in degrees.

endheader
time	pelvis_tilt	pelvis_list	pelvis_rotation	pelvis_tx	pelvis_ty	pelvis_tz	hip_flexion_r	hip_adduction_r	hip_rotation_r	knee_angle_r	knee_angle_r_beta	ankle_angle_r	subtalar_angle_r	mtp_angle_r	hip_flexion_l	hip_adduction_l	hip_rotation_l	knee_angle_l	knee_angle_l_beta	ankle_angle_l	subtalar_angle_l	mtp_angle_l	lumbar_extension	lumbar_bending	lumbar_rotation	arm_flex_r	arm_add_r	arm_rot_r	elbow_flex_r	pro_sup_r	wrist_flex_r	wrist_dev_r	arm_flex_l	arm_add_l	arm_rot_l	elbow_flex_l	pro_sup_l	wrist_flex_l	wrist_dev_l
     30.93000000	     -9.18751458	     -2.89748583	     -2.92274623	      0.78465989	      0.92151854	      0.40339345	     24.33937621	      0.50016320	     -7.03573949	     20.86946967	     20.86946967	      6.04320588	     -2.69165816	     -2.26884464	      5.59742274	     -6.41569630	     -9.30294442	     20.21870040	     20.21870040	     19.48047419	     -4.40062752	      1.07170995	     -9.96820892	      5.65227120	      0.12627976	     -3.83708626	    -15.27939744	    -13.27301016	     40.18463135	     45.66007865	      0.00000000	      0.00000000	     16.96946535	    -12.91356795	    -12.18062108	     76.43075609	     48.00285947	      0.00000000	      0.00000000
     30.94885714	     -9.23518110	     -2.90262626	     -2.60688754	      0.78564837	      0.92191750	      0.40779496	     23.92966108	      0.68481384	     -7.33322304	     20.93360667	     20.93360667	      6.77304005	     -2.50484044	     -1.71352550	      5.95889348	     -6.95063439	     -9.23531184	     21.51187833	     21.51187833	     19.06497378	     -4.15076756	      0.33427999	     -9.88004919	      5.64629515	      0.18654042	     -3.55650669	    -15.61292849	    -13.48194789	     41.04921252	     45.64414687	      0.00000000	      0.00000000	     16.30644967	    -12.70494626	    -11.03359009	     73.41260499	     47.86650937	      0.00000000	      0.00000000
     30.96771429	     -9.16343199	     -2.88360379	     -2.33332491	      0.78644374	      0.92237173	      0.41214605	     23.43383021	      0.81918508	     -7.73827627	     21.07912773	     21.07912773	      7.73001443	     -2.07136330	     -0.79219946	      6.32841886	     -7.40527352	     -8.87917071	     22.98237521	     22.98237521	     18.18829775	     -4.60308946	     -1.20732306	     -9.92218003	      5.58714298	      0.99990834	     -3.87578289	    -16.15516141	    -13.89177373	     42.43297970	     45.62153121	      0.00000000	      0.00000000	     16.55891568	    -12.21413760	     -9.00448728	     68.88945936	     47.65049445	      0.00000000	      0.00000000
     30.98657143	     -9.11973246	     -2.94122027	     -2.02338238	      0.78677041	      0.92270053	      0.41638152	     22.91349543	      1.05138892	     -8.13851498	     21.02602213	     21.02602213	      8.18230588	     -1.92828201	     -0.85665597	      7.17101528	     -7.97779386	     -8.30108431	     25.20882404	     25.20882404	     17.60843829	     -5.27389046	     -1.76695870	    -10.09614867	      5.58365933	      0.77219216	     -3.00232356	    -16.55571769	    -14.08448424	     43.05655523	     45.61546499	      0.00000000	      0.00000000	     15.26098843	    -12.05811454	     -8.55503159	     67.17602193	     47.58177998	      0.00000000	      0.00000000
     31.00542857	     -9.12775930	     -2.85494799	     -1.68549703	      0.78682925	      0.92289181	      0.42032410	     22.54212944	      1.07721042	     -8.58140274	     21.13153538	     21.13153538	      8.78772105	     -1.56848621	     -0.77943444	      8.20922350	     -8.33848810	     -7.53694389	     27.53602309	     27.53602309	     16.24790991	     -6.38881960	     -3.70966328	    -10.04318457	      5.45270826	      0.88089271	     -2.42966430	    -17.05463671	    -13.99873866	     43.83187603	     45.59520197	      0.00000000	      0.00000000	     15.29582756	    -11.71225720	     -7.23160342	     61.63742013	     47.40158422	      0.00000000	      0.00000000
     31.02428571	     -9.12889434	     -2.88122193	     -1.32391425	      0.78651427	      0.92285441	      0.42413082	     22.16574361	      1.24762564	     -8.93525857	     21.19616176	     21.19616176	      9.32936104	     -1.49077069	     -0.72259594	      9.59784997	     -8.81372664	     -6.57580848	     30.42468141	     30.42468141	     14.71295250	     -7.81443813	     -5.93191143	    -10.08191280	      5.43192038	      1.32235878	     -2.06818294	    -17.67586918	    -14.14855856	     44.83093042	     45.58470319	      0.00000000	      0.00000000	     15.22268818	    -11.17059280	     -5.85989925	     57.01182420	     47.23360814	      0.00000000	      0.00000000
     31.04314286	     -9.09095957	     -2.94413295	     -0.95126438	      0.78586751	      0.92266233	      0.42772018	     21.83538400	      1.44045558	     -9.27802574	     21.37195360	     21.37195360	      9.77105912	     -1.54715413	     -0.89131147	     11.29393916	     -9.32644130	     -5.56258490	     33.92056669	     33.92056669	     13.76645427	     -8.88868864	     -6.45282748	    -10.24533811	      5.41835334	      0.97775546	     -0.79071840	    -18.10423417	    -14.23305175	     45.40120530	     45.57821653	      0.00000000	      0.00000000	     13.83508278	    -10.99961543	     -5.50674866	     54.70221531	     47.16334623	      0.00000000	      0.00000000
     31.06200000	     -8.99253326	     -2.87462686	     -0.55697456	      0.78492810	      0.92244263	      0.43094946	     21.59440957	      1.45979574	     -9.52978120	     21.80623445	     21.80623445	     10.29096152	     -1.74972369	     -1.02326139	     13.05264482	     -9.52794556	     -4.30627465	     37.49375085	     37.49375085	     12.49624210	    -10.54725042	     -6.78238575	    -10.37311199	      5.31902305	      0.78664744	      0.72582929	    -18.65747884	    -13.71261633	     45.43691209	     45.56978181	      0.00000000	      0.00000000	     13.71276014	    -10.62270529	     -4.91722379	     48.88467259	     47.04418823	      0.00000000	      0.00000000
     31.08085714	     -8.89289096	     -3.03829848	     -0.18872223	      0.78376909	      0.92192330	      0.43412625	     21.33897355	      1.73313097	     -9.84217187	     22.17453181	     22.17453181	     10.74277699	     -1.92845027	     -1.18641577	     15.03323014	    -10.04909057	     -3.22391927	     41.39976205	     41.39976205	     11.41671152	    -11.60054029	     -6.93084816	    -10.61455463	      5.42952040	      0.94819191	      1.92179467	    -19.26569774	    -13.74359137	     45.78992189	     45.56836866	      0.00000000	      0.00000000	     12.45608585	    -10.19946029	     -4.66506939	     46.77560381	     46.98586379	      0.00000000	      0.00000000
     31.09971429	     -8.79209985	     -2.95738541	      0.15618123	      0.78234517	      0.92131046	      0.43687383	     21.29656716	      1.72667985	     -9.92807342	     22.91193280	     22.91193280	     11.32998705	     -2.37409343	     -1.15811830	     17.03497512	    -10.06477532	     -1.94899591	     45.23347013	     45.23347013	     10.62415033	    -13.08533558	     -5.47431854	    -10.70899724	      5.30538531	      0.76748326	      3.77155900	    -19.76164591	    -13.12486806	     45.50345541	     45.56967402	      0.00000000	      0.00000000	     12.42340576	     -9.80219518	     -4.25358540	     40.43076932	     46.88753758	      0.00000000	      0.00000000
     31.11857143	     -8.67699321	     -3.09487600	      0.46419632	      0.78081395	      0.92050144	      0.43952790	     21.20735084	      1.93688999	    -10.17055076	     23.57171604	     23.57171604	     11.96972966	     -2.60362781	     -0.85597602	     19.14834299	    -10.40389980	     -0.93877867	     49.20041336	     49.20041336	     10.62562116	    -13.62017054	     -2.67645532	    -10.84917253	      5.39850833	      1.33033521	      5.13491540	    -20.50661732	    -12.77847728	     44.93799109	     45.59757365	      0.00000000	      0.00000000	     12.25017344	     -9.06644162	     -4.34725682	     35.59590134	     46.85314322	      0.00000000	      0.00000000
